<svg width="900" height="300" viewBox="0 0 900 300" xmlns="http://www.w3.org/2000/svg" role="img" aria-label="career-pilot banner">
<defs>
<linearGradient id="jbg" x1="0" y1="0" x2="1" y2="1"><stop offset="0" stop-color="#070b14"/><stop offset="1" stop-color="#0b1120"/></linearGradient>
<linearGradient id="redline" x1="0" y1="0" x2="1" y2="0"><stop offset="0" stop-color="#d32f2f"/><stop offset="1" stop-color="#ff4d4d"/></linearGradient>
<clipPath id="card"><rect x="8" y="8" width="884" height="284" rx="16"/></clipPath>
<style>
@keyframes float{0%,100%{transform:translateY(0)}50%{transform:translateY(-7px)}}
@keyframes flame{0%,100%{transform:scaleY(1)}50%{transform:scaleY(1.35)}}
@keyframes glow{0%,100%{opacity:.4}50%{opacity:.9}}
@keyframes sweep2{0%{transform:translateX(-900px)}100%{transform:translateX(900px)}}
.rk{animation:float 3.4s ease-in-out infinite}
.fl{transform-box:fill-box;transform-origin:top;animation:flame .5s ease-in-out infinite}
.st{animation:glow 2.2s ease-in-out infinite}
.ed{animation:sweep2 6s linear infinite}
text{user-select:none}</style>
</defs>
<rect x="8" y="8" width="884" height="284" rx="16" fill="url(#jbg)" stroke="#1c2740" stroke-width="1"/>
<g clip-path="url(#card)"><rect class="ed" x="-900" y="8" width="130" height="284" fill="#ff4d4d" opacity=".05"/></g>
<path d="M8 24a16 16 0 0 1 16-16h180l-22 18 22 18H24A16 16 0 0 1 8 24Z" fill="url(#redline)"/>
<text x="100" y="30" text-anchor="middle" font-family="system-ui,-apple-system,'Segoe UI',Roboto,sans-serif" font-size="12" font-weight="700" fill="#fff">◆ FLAGSHIP · OPEN-SOURCE</text>
<text x="60" y="96" font-family="system-ui,-apple-system,'Segoe UI',Roboto,sans-serif" font-size="40" font-weight="800" fill="#e8eef7">career-pilot</text>
<text x="60" y="126" font-family="system-ui,-apple-system,'Segoe UI',Roboto,sans-serif" font-size="15" fill="#9aa8bf">AI co-pilot for your career — resume optimizer, mock interviews,</text>
<text x="60" y="148" font-family="system-ui,-apple-system,'Segoe UI',Roboto,sans-serif" font-size="15" fill="#9aa8bf">job-tracker &amp; portfolio builder — 120+ contributors aboard.</text>
<rect x="60" y="196" width="70" height="26" rx="13" fill="#101a30" stroke="#1c2740"/><text x="95" y="213" text-anchor="middle" font-family="'SF Mono','Cascadia Code',Menlo,Consolas,'Liberation Mono',monospace" font-size="11.5" fill="#9aa8bf">Next.js</text><rect x="140" y="196" width="56" height="26" rx="13" fill="#101a30" stroke="#1c2740"/><text x="168" y="213" text-anchor="middle" font-family="'SF Mono','Cascadia Code',Menlo,Consolas,'Liberation Mono',monospace" font-size="11.5" fill="#9aa8bf">React</text><rect x="206" y="196" width="70" height="26" rx="13" fill="#101a30" stroke="#1c2740"/><text x="242" y="213" text-anchor="middle" font-family="'SF Mono','Cascadia Code',Menlo,Consolas,'Liberation Mono',monospace" font-size="11.5" fill="#9aa8bf">Node.js</text><rect x="287" y="196" width="63" height="26" rx="13" fill="#101a30" stroke="#1c2740"/><text x="318" y="213" text-anchor="middle" font-family="'SF Mono','Cascadia Code',Menlo,Consolas,'Liberation Mono',monospace" font-size="11.5" fill="#9aa8bf">AI/LLM</text><rect x="360" y="196" width="92" height="26" rx="13" fill="#101a30" stroke="#1c2740"/><text x="406" y="213" text-anchor="middle" font-family="'SF Mono','Cascadia Code',Menlo,Consolas,'Liberation Mono',monospace" font-size="11.5" fill="#9aa8bf">PostgreSQL</text><rect x="462" y="196" width="99" height="26" rx="13" fill="#101a30" stroke="#1c2740"/><text x="512" y="213" text-anchor="middle" font-family="'SF Mono','Cascadia Code',Menlo,Consolas,'Liberation Mono',monospace" font-size="11.5" fill="#9aa8bf">Open-Source</text>
<text x="60" y="262" font-family="'SF Mono','Cascadia Code',Menlo,Consolas,'Liberation Mono',monospace" font-size="12.5" fill="#4d8dff">github.com/anurag3407/career-pilot ↗</text>
<rect x="640" y="60" width="220" height="180" rx="14" fill="#101a30" stroke="#1c2740"/>
<circle class="st" cx="750" cy="112" r="44" fill="#d32f2f" opacity=".5"/>
<g transform="translate(730,92)"><path d="M32 2l8.2 16.6 18.2 2.6-13.2 12.9 3.1 18.1L32 44l-16.3 8.6 3.1-18.1L5.6 21.2l18.2-2.6Z" transform="scale(.62)" fill="#ffb454"/></g>
<text x="750" y="160" text-anchor="middle" font-family="system-ui,-apple-system,'Segoe UI',Roboto,sans-serif" font-size="34" font-weight="800" fill="#e8eef7">129</text>
<text x="750" y="178" text-anchor="middle" font-family="system-ui,-apple-system,'Segoe UI',Roboto,sans-serif" font-size="11" fill="#ffb454">★ stars · 758 forks</text>
<path d="M660 204h10l6-13 8 26 6-13h11" stroke="#3ddc84" stroke-width="2.2" fill="none" stroke-linecap="round" stroke-linejoin="round"/>
<text x="716" y="208" font-family="system-ui,-apple-system,'Segoe UI',Roboto,sans-serif" font-size="12.5" fill="#3ddc84">actively maintained</text>
<g class="rk" transform="translate(570,35)">
<path d="M18 44s-14-8-14-24c0-12 8-20 14-24 6 4 14 12 14 24 0 16-14 24-14 24Z" fill="#0d1526" stroke="#ff4d4d" stroke-width="1.6"/>
<circle cx="18" cy="20" r="5" fill="#4d8dff"/>
<path d="M8 38l-8 8 3-11M28 38l8 8-3-11" fill="#d32f2f"/>
<path class="fl" d="M13 46c1 5 3 8 5 9 2-1 4-4 5-9-3 1.5-7 1.5-10 0Z" fill="#ffb454"/>
</g>
</svg>